<?xml version="1.0" standalone="no"?>
<!DOCTYPE svg PUBLIC "-//W3C//DTD SVG 20010904//EN"
 "http://www.w3.org/TR/2001/REC-SVG-20010904/DTD/svg10.dtd">
<svg version="1.0" xmlns="http://www.w3.org/2000/svg"
 width="260.000000pt" height="260.000000pt" viewBox="0 0 260.000000 260.000000"
 preserveAspectRatio="xMidYMid meet">
<metadata>
Created by potrace 1.11, written by Peter Selinger 2001-2013
</metadata>
<g transform="translate(0.000000,260.000000) scale(0.100000,-0.100000)"
fill="#000000" stroke="none">
<path d="M40 1845 c0 -3 15 -21 33 -39 41 -42 295 -309 380 -400 l65 -70 -182
-210 c-99 -116 -186 -215 -192 -221 -23 -22 -124 -143 -124 -149 0 -3 64 -6
143 -6 l142 0 105 132 c58 72 110 136 115 142 10 10 229 279 246 302 5 6 -1
20 -14 35 -12 13 -65 74 -117 134 -52 61 -105 121 -118 135 -12 14 -59 69
-105 122 l-82 97 -147 0 c-82 1 -148 -1 -148 -4z"/>
<path d="M521 1833 c21 -28 381 -456 401 -477 17 -19 16 -21 -15 -60 -86 -106
-417 -535 -417 -540 0 -3 58 -6 129 -6 l128 0 177 232 177 233 50 5 c28 3 52
4 55 1 2 -2 4 -109 4 -238 l0 -233 99 0 98 0 0 231 c0 165 3 233 12 238 6 4
30 5 53 2 42 -6 45 -9 208 -223 91 -120 172 -224 181 -233 13 -13 38 -15 143
-13 l127 3 -66 85 c-36 47 -71 92 -78 100 -32 39 -294 376 -300 387 -5 7 37
64 105 145 62 73 120 142 130 153 9 11 55 66 103 123 l86 102 -143 -1 -143 0
-90 -116 c-49 -63 -120 -155 -158 -203 l-67 -87 -50 -2 c-48 -1 -50 0 -51 26
0 16 -1 108 -1 206 l0 177 -99 0 -99 0 0 -204 0 -204 -50 0 -50 -1 -162 205
-162 204 -139 0 c-131 0 -139 -1 -126 -17z"/>
<path d="M2217 1773 c-36 -43 -74 -87 -84 -98 -10 -11 -47 -54 -82 -95 -36
-41 -70 -79 -75 -85 -18 -16 -122 -139 -130 -152 -6 -10 66 -106 202 -268 9
-11 61 -74 114 -140 54 -66 110 -135 125 -153 l28 -33 143 3 142 3 -116 135
c-161 186 -208 241 -289 334 -106 123 -100 111 -73 139 22 23 286 301 338 357
14 14 47 50 75 78 l49 52 -150 0 -151 0 -66 -77z"/>
</g>
</svg>
